<mxfile host="app.diagrams.net" agent="Mozilla/5.0 (Windows NT 10.0; Win64; x64; rv:130.0) Gecko/20100101 Firefox/130.0" version="24.7.12">
  <diagram id="C5RBs43oDa-KdzZeNtuy" name="Page-1">
    <mxGraphModel dx="1195" dy="622" grid="1" gridSize="10" guides="1" tooltips="1" connect="1" arrows="1" fold="1" page="1" pageScale="1" pageWidth="827" pageHeight="1169" math="0" shadow="0">
      <root>
        <mxCell id="WIyWlLk6GJQsqaUBKTNV-0" />
        <mxCell id="WIyWlLk6GJQsqaUBKTNV-1" parent="WIyWlLk6GJQsqaUBKTNV-0" />
        <mxCell id="WIyWlLk6GJQsqaUBKTNV-3" value="&lt;div&gt;Izglītības iestāžu saraksts&lt;/div&gt;&lt;div&gt;- Nosaukums;&lt;/div&gt;&lt;div&gt;- Adrese;&lt;/div&gt;&lt;div&gt;-NP;&lt;/div&gt;&lt;div&gt;VAM;&lt;/div&gt;&lt;div&gt;JS;&lt;br&gt;&lt;/div&gt;" style="rounded=1;whiteSpace=wrap;html=1;fontSize=12;glass=0;strokeWidth=1;shadow=0;" parent="WIyWlLk6GJQsqaUBKTNV-1" vertex="1">
          <mxGeometry x="30" y="30" width="120" height="120" as="geometry" />
        </mxCell>
        <mxCell id="WIyWlLk6GJQsqaUBKTNV-7" value="&lt;div&gt;Darbinieki:&lt;/div&gt;&lt;div&gt;JSI;&lt;/div&gt;&lt;div&gt;NP_vadība;&lt;/div&gt;&lt;div&gt;JC_štābs&lt;br&gt;&lt;/div&gt;" style="rounded=1;whiteSpace=wrap;html=1;fontSize=12;glass=0;strokeWidth=1;shadow=0;" parent="WIyWlLk6GJQsqaUBKTNV-1" vertex="1">
          <mxGeometry x="190" y="30" width="120" height="120" as="geometry" />
        </mxCell>
        <mxCell id="ZfrTe5NxoF89OXbGs7Vm-1" value="&lt;div&gt;Pasākuma veidi;&lt;/div&gt;&lt;div&gt;-Nometne;&lt;/div&gt;&lt;div&gt;-pārgājiens;&lt;/div&gt;&lt;div&gt;-ekskursija;&lt;/div&gt;&lt;div&gt;-dienas pasākums;&lt;/div&gt;&lt;div&gt;NP NV rīcībā&lt;br&gt;&lt;/div&gt;" style="rounded=1;whiteSpace=wrap;html=1;" vertex="1" parent="WIyWlLk6GJQsqaUBKTNV-1">
          <mxGeometry x="340" y="30" width="120" height="120" as="geometry" />
        </mxCell>
        <mxCell id="ZfrTe5NxoF89OXbGs7Vm-2" value="&lt;div&gt;Obligātais_saturs&lt;/div&gt;&lt;div&gt;-līmenis;&lt;/div&gt;&lt;div&gt;-līmeņa saturs;&lt;br&gt;&lt;/div&gt;" style="rounded=1;whiteSpace=wrap;html=1;" vertex="1" parent="WIyWlLk6GJQsqaUBKTNV-1">
          <mxGeometry x="490" y="30" width="120" height="60" as="geometry" />
        </mxCell>
        <mxCell id="ZfrTe5NxoF89OXbGs7Vm-3" value="&lt;div&gt;Darba stundas&lt;/div&gt;&lt;div&gt;-gads;&lt;/div&gt;&lt;div&gt;-mēnesis;&lt;/div&gt;&lt;div&gt;stundas;&lt;br&gt;&lt;/div&gt;" style="rounded=1;whiteSpace=wrap;html=1;" vertex="1" parent="WIyWlLk6GJQsqaUBKTNV-1">
          <mxGeometry x="650" y="30" width="120" height="60" as="geometry" />
        </mxCell>
        <mxCell id="ZfrTe5NxoF89OXbGs7Vm-4" value="&lt;div&gt;Grupu mācību pasākumi:&lt;/div&gt;&lt;div&gt;-Grupa;&lt;/div&gt;&lt;div&gt;- Obligātais saturs;&lt;/div&gt;&lt;div&gt;-Obligātie pasākumi&lt;br&gt;&lt;/div&gt;" style="rounded=1;whiteSpace=wrap;html=1;" vertex="1" parent="WIyWlLk6GJQsqaUBKTNV-1">
          <mxGeometry x="30" y="180" width="120" height="80" as="geometry" />
        </mxCell>
      </root>
    </mxGraphModel>
  </diagram>
</mxfile>
